<?xml version="1.0" standalone="no"?><!-- Generator: Gravit.io --><svg xmlns="http://www.w3.org/2000/svg" xmlns:xlink="http://www.w3.org/1999/xlink" style="isolation:isolate" viewBox="0 0 128 129" width="128" height="129"><g opacity="0.2"><radialGradient id="_rgradient_18" fx="-402.9%" fy="9346.800000000001%" cx="-402.9%" cy="9346.800000000001%" r="3533.8%" gradientTransform="matrix(0.01414909062709459 0 0 0.014149166666666668 0.564609375 0.797890625)"><stop offset="0%" style="stop-color:rgb(0,0,0)"/><stop offset="100%" style="stop-color:rgb(0,0,0)"/></radialGradient><path d=" M 119 119.751 C 118.994 123.064 94.372 125.75 64 125.75 C 33.628 125.75 9.006 123.064 9 119.751 C 8.994 116.437 33.62 113.75 64 113.75 C 94.38 113.75 119.006 116.437 119 119.751 Z " fill="url(#_rgradient_18)"/></g><g id="null" style="opacity:0.4;"><g opacity="0.4"><radialGradient id="_rgradient_19" fx="499.3%" fy="4350%" cx="499.3%" cy="4350%" r="250%" gradientTransform="matrix(0.4007799999999999 0 0 0.19999999999999998 0.2021640625 -0.1359375)"><stop offset="0%" style="stop-color:rgb(24,24,24)"/><stop offset="100%" style="stop-color:rgb(24,24,24)"/></radialGradient><path d=" M 97.787 117.752 L 111.997 117.752 L 111.997 122.752 L 97.787 122.752 L 97.787 117.752 Z " fill="url(#_rgradient_19)"/></g><g opacity="0.4"><radialGradient id="_rgradient_20" fx="499.3%" fy="4350%" cx="499.3%" cy="4350%" r="250%" gradientTransform="matrix(0.40075999999999995 0 0 0.19999999999999998 -0.1673359375 -0.815625)"><stop offset="0%" style="stop-color:rgb(24,24,24)"/><stop offset="100%" style="stop-color:rgb(24,24,24)"/></radialGradient><path d=" M 28.209 122.752 L 13.999 122.752 L 13.999 117.752 L 28.209 117.752 L 28.209 122.752 Z " fill="url(#_rgradient_20)"/></g><g opacity="0.4"><linearGradient id="_lgradient_78" x1="53.77915088636549%" y1="100.40000000000005%" x2="53.7791508863655%" y2="-0.014285714285655615%"><stop offset="0%" stop-opacity="0" style="stop-color:rgb(24,24,24)"/><stop offset="50%" stop-opacity="1" style="stop-color:rgb(24,24,24)"/><stop offset="100%" stop-opacity="0" style="stop-color:rgb(24,24,24)"/></linearGradient><path d=" M 28.209 117.752 L 97.787 117.752 L 97.787 122.752 L 28.209 122.752 L 28.209 117.752 Z " fill="url(#_lgradient_78)"/></g></g><linearGradient id="_lgradient_79" x1="60.51486564980672%" y1="10.813973797815486%" x2="14.644660940672644%" y2="85.35533905932738%"><stop offset="0%" stop-opacity="1" style="stop-color:rgb(216,63,97)"/><stop offset="100%" stop-opacity="1" style="stop-color:rgb(204,43,83)"/></linearGradient><path d=" M 14.968 10.251 L 113.612 10.251 C 116.945 10.251 119.651 12.957 119.651 16.29 L 119.651 114.933 C 119.651 118.267 116.945 120.973 113.612 120.973 L 14.968 120.973 C 11.635 120.973 8.929 118.267 8.929 114.933 L 8.929 16.29 C 8.929 12.957 11.635 10.251 14.968 10.251 Z " fill="url(#_lgradient_79)"/><g opacity="0.66"><linearGradient id="_lgradient_80" x1="50.000603773584906%" y1="-1.3503443603929104%" x2="50.000603773584885%" y2="101.35305408151743%"><stop offset="0%" stop-opacity="1" style="stop-color:rgb(255,255,255)"/><stop offset="6.3%" stop-opacity="0.235" style="stop-color:rgb(255,255,255)"/><stop offset="95.1%" stop-opacity="0.157" style="stop-color:rgb(255,255,255)"/><stop offset="100%" stop-opacity="0.392" style="stop-color:rgb(255,255,255)"/></linearGradient><path d=" M 14.968 12.121 L 113.612 12.121 C 115.834 12.121 117.638 13.925 117.638 16.147 L 117.638 115.076 C 117.638 117.298 115.834 119.103 113.612 119.103 L 14.968 119.103 C 12.746 119.103 10.942 117.298 10.942 115.076 L 10.942 16.147 C 10.942 13.925 12.746 12.121 14.968 12.121 Z " fill="none" vector-effect="non-scaling-stroke" stroke-width="3" stroke="url(#_lgradient_80)" stroke-linejoin="round" stroke-linecap="round" stroke-miterlimit="4"/></g><g opacity="0.7"><path d=" M 14.968 10.251 L 113.612 10.251 C 116.945 10.251 119.651 12.957 119.651 16.29 L 119.651 114.933 C 119.651 118.267 116.945 120.973 113.612 120.973 L 14.968 120.973 C 11.635 120.973 8.929 118.267 8.929 114.933 L 8.929 16.29 C 8.929 12.957 11.635 10.251 14.968 10.251 Z " fill="none" vector-effect="non-scaling-stroke" stroke-width="2.013" stroke="rgb(98,14,43)" stroke-linejoin="round" stroke-linecap="round" stroke-miterlimit="4"/></g><g opacity="0.3"><path d=" M 18.392 107.861 C 18.392 106.267 18.943 104.929 20.044 103.846 C 21.145 102.744 22.491 102.193 24.084 102.193 C 25.637 102.193 26.954 102.744 28.036 103.846 C 29.137 104.929 29.687 106.267 29.687 107.861 C 29.687 109.415 29.137 110.744 28.036 111.846 C 26.954 112.928 25.637 113.469 24.084 113.469 C 22.491 113.469 21.145 112.928 20.044 111.846 C 18.943 110.763 18.392 109.435 18.392 107.861 Z  M 18.064 82.266 L 18.064 91.694 C 30.112 91.694 39.897 101.495 39.897 113.562 L 49.36 113.562 C 49.36 96.277 35.322 82.266 18.064 82.266 Z  M 18.08 61.635 L 18.08 72.057 C 40.955 72.057 59.529 90.649 59.529 113.546 L 69.991 113.546 C 69.991 84.883 46.715 61.635 18.08 61.635 L 18.08 61.635 Z " fill="rgb(141,36,74)"/></g><g opacity="0.3"><path d=" M 18.392 107.861 C 18.392 106.267 18.943 104.929 20.044 103.846 C 21.145 102.744 22.491 102.193 24.084 102.193 C 25.637 102.193 26.954 102.744 28.036 103.846 C 29.137 104.929 29.687 106.267 29.687 107.861 C 29.687 109.415 29.137 110.744 28.036 111.846 C 26.954 112.928 25.637 113.469 24.084 113.469 C 22.491 113.469 21.145 112.928 20.044 111.846 C 18.943 110.763 18.392 109.435 18.392 107.861 Z  M 18.064 82.266 L 18.064 91.694 C 30.112 91.694 39.897 101.495 39.897 113.562 L 49.36 113.562 C 49.36 96.277 35.322 82.266 18.064 82.266 Z  M 18.08 61.635 L 18.08 72.057 C 40.955 72.057 59.529 90.649 59.529 113.546 L 69.991 113.546 C 69.991 84.883 46.715 61.635 18.08 61.635 L 18.08 61.635 Z " fill="rgb(138,25,66)" vector-effect="non-scaling-stroke" stroke-width="2.164" stroke="rgb(136,25,65)" stroke-linejoin="round" stroke-linecap="butt" stroke-miterlimit="4"/></g><path d=" M 18.392 106.779 C 18.392 105.185 18.943 103.847 20.044 102.764 C 21.145 101.662 22.491 101.111 24.084 101.111 C 25.637 101.111 26.954 101.662 28.036 102.764 C 29.137 103.847 29.687 105.185 29.687 106.779 C 29.687 108.334 29.137 109.662 28.036 110.764 C 26.954 111.846 25.637 112.388 24.084 112.387 C 22.491 112.388 21.145 111.846 20.044 110.764 C 18.943 109.682 18.392 108.353 18.392 106.779 Z  M 18.064 81.184 L 18.064 90.612 C 30.112 90.612 39.897 100.413 39.897 112.481 L 49.36 112.481 C 49.36 95.195 35.322 81.184 18.064 81.184 Z  M 18.08 60.553 L 18.08 70.975 C 40.955 70.975 59.529 89.567 59.529 112.464 L 69.991 112.464 C 69.991 83.801 46.715 60.553 18.08 60.553 L 18.08 60.553 Z " fill="rgb(255,255,255)"/></svg>