<?xml version="1.0" standalone="no"?><!-- Generator: Gravit.io --><svg xmlns="http://www.w3.org/2000/svg" xmlns:xlink="http://www.w3.org/1999/xlink" style="isolation:isolate" viewBox="0 0 128 128" width="128" height="128"><g opacity="0.2"><radialGradient id="_rgradient_6" fx="-402.9%" fy="9346.800000000001%" cx="-402.9%" cy="9346.800000000001%" r="3533.8%" gradientTransform="matrix(0.014149090909090908 0 0 0.014149166666666666 0.548984375 0.29790625)"><stop offset="0%" style="stop-color:rgb(0,0,0)"/><stop offset="100%" style="stop-color:rgb(0,0,0)"/></radialGradient><path d=" M 119 112.25 C 119 115.564 94.376 118.25 64 118.25 C 33.624 118.25 9 115.564 9 112.25 C 9 108.936 33.624 106.25 64 106.25 C 94.376 106.25 119 108.936 119 112.25 Z " fill="url(#_rgradient_6)"/></g><g id="news-svg"><g id="null"><linearGradient id="_lgradient_5" x1="0%" y1="50%" x2="0.5002506630780905%" y2="-49.998748738542176%"><stop offset="0.024827684642751327%" stop-opacity="1" style="stop-color:rgb(204,43,83)"/><stop offset="99.9454419088917%" stop-opacity="1" style="stop-color:rgb(232,90,116)"/></linearGradient><path d=" M 21.86 9.75 L 106.14 9.75 C 108.605 9.75 110.605 11.751 110.605 14.215 L 110.605 109.749 C 110.605 112.214 108.605 114.215 106.14 114.215 L 21.86 114.215 C 19.395 114.215 17.395 112.214 17.395 109.749 L 17.395 14.215 C 17.395 11.751 19.395 9.75 21.86 9.75 Z " fill="url(#_lgradient_5)"/><g opacity="0.58"><path d=" M 21.86 9.75 L 106.14 9.75 C 108.605 9.75 110.605 11.751 110.605 14.215 L 110.605 109.749 C 110.605 112.214 108.605 114.215 106.14 114.215 L 21.86 114.215 C 19.395 114.215 17.395 112.214 17.395 109.749 L 17.395 14.215 C 17.395 11.751 19.395 9.75 21.86 9.75 Z " fill="none" vector-effect="non-scaling-stroke" stroke-width="3.67" stroke="rgb(255,255,255)" stroke-linejoin="miter" stroke-linecap="square" stroke-miterlimit="3"/></g><path d=" M 21.86 9.75 L 106.14 9.75 C 108.605 9.75 110.605 11.751 110.605 14.215 L 110.605 109.749 C 110.605 112.214 108.605 114.215 106.14 114.215 L 21.86 114.215 C 19.395 114.215 17.395 112.214 17.395 109.749 L 17.395 14.215 C 17.395 11.751 19.395 9.75 21.86 9.75 Z " fill="none" vector-effect="non-scaling-stroke" stroke-width="1.468" stroke="rgb(147,37,81)" stroke-linejoin="miter" stroke-linecap="square" stroke-miterlimit="3"/></g><g id="null"><path d=" M 54.196 78.049 C 54.196 81.254 51.717 83.756 48.802 83.756 C 45.886 83.756 43.48 81.254 43.48 78.049 C 43.48 74.921 45.886 72.341 48.802 72.341 C 51.717 72.341 54.196 74.921 54.196 78.049 Z  M 69.431 83.365 L 62.141 83.365 C 62.141 72.498 53.977 63.194 43.772 63.194 L 43.772 55.767 C 57.257 55.767 69.431 66.009 69.431 83.365 Z  M 84.52 83.365 L 76.574 83.365 C 76.574 64.601 61.339 48.261 43.772 48.261 L 43.772 40.209 C 65.348 40.209 84.52 57.8 84.52 83.365 Z " fill="rgb(255,255,255)"/></g></g></svg>