<?xml version="1.0" standalone="no"?><!-- Generator: Gravit.io --><svg xmlns="http://www.w3.org/2000/svg" xmlns:xlink="http://www.w3.org/1999/xlink" style="isolation:isolate" viewBox="0 0 128 128" width="128" height="128"><g opacity="0.2"><path d=" M 119 112.251 C 118.994 115.564 94.371 118.249 64 118.249 C 33.629 118.249 9.006 115.564 9 112.251 C 8.996 110.107 19.478 108.126 36.497 107.053 C 53.515 105.981 74.485 105.981 91.503 107.053 C 108.522 108.126 119.004 110.107 119 112.251 L 119 112.251 Z " fill="none"/></g><g id="g2036"><g id="g3712" style="opacity:0.4;"><g opacity="0.4"><rect x="103.789" y="110.251" width="14.211" height="5" transform="matrix(1,0,0,1,0,0)" fill="none"/></g><g opacity="0.4"><rect x="10" y="110.251" width="14.211" height="5" transform="matrix(-1,0,0,-1,34.211,225.501)" fill="none"/></g><g opacity="0.4"><rect x="24.211" y="110.251" width="79.579" height="5" transform="matrix(1,0,0,1,0,0)" fill="none"/></g></g></g><defs><radialGradient id="_rgradient_2" fx="620.01843%" fy="995.71075%" cx="673.04144%" cy="995.71075%" r="1267.1875%"><stop offset="0%" style="stop-color:#FF358D"/><stop offset="100%" style="stop-color:#F0431A"/></radialGradient></defs><path d="M 18.555 9.751 L 109.445 9.751 C 112.787 9.751 115.5 12.464 115.5 15.805 L 115.5 106.696 C 115.5 110.038 112.787 112.751 109.445 112.751 L 18.555 112.751 C 15.213 112.751 12.5 110.038 12.5 106.696 L 12.5 15.805 C 12.5 12.464 15.213 9.751 18.555 9.751 Z" style="stroke:none;fill:url(#_rgradient_2);stroke-miterlimit:10;"/><defs><linearGradient id="_lgradient_6" x1="0.4999999999999999" y1="0" x2="0.49999999999999994" y2="1"><stop offset="0%" style="stop-color:#CC2B53"/><stop offset="100%" style="stop-color:#CC2B53"/></linearGradient><linearGradient id="_lgradient_7" x1="0.49999981586833664" y1="-0.013513564624037633" x2="0.4999998158683365" y2="1.0135137861386139"><stop offset="0%" style="stop-color:#FFFFFF"/><stop offset="6.316455%" style="stop-color:rgba(255,255,255,0.23529412)"/><stop offset="95.056331%" style="stop-color:rgba(255,255,255,0.15686275)"/><stop offset="100%" style="stop-color:rgba(255,255,255,0.39215687)"/></linearGradient><linearGradient id="_lgradient_8" x1="0.49999981586833664" y1="-0.013513564624037633" x2="0.4999998158683365" y2="1.0135137861386139"><stop offset="0%" style="stop-color:#FFFFFF"/><stop offset="6.316455%" style="stop-color:rgba(255,255,255,0.23529412)"/><stop offset="95.056331%" style="stop-color:rgba(255,255,255,0.15686275)"/><stop offset="100%" style="stop-color:rgba(255,255,255,0.39215687)"/></linearGradient></defs><path d="M 18.5 10.751 L 109.5 10.751 C 112.26 10.751 114.5 12.991 114.5 15.751 L 114.5 106.751 C 114.5 109.51 112.26 111.751 109.5 111.751 L 18.5 111.751 C 15.74 111.751 13.5 109.51 13.5 106.751 L 13.5 15.751 C 13.5 12.991 15.74 10.751 18.5 10.751 Z" style="stroke:none;fill:url(#_lgradient_6);stroke-miterlimit:10;"/><path d="M 18.5 10.751 L 109.5 10.751 C 112.26 10.751 114.5 12.991 114.5 15.751 L 114.5 106.751 C 114.5 109.51 112.26 111.751 109.5 111.751 L 18.5 111.751 C 15.74 111.751 13.5 109.51 13.5 106.751 L 13.5 15.751 C 13.5 12.991 15.74 10.751 18.5 10.751 Z" style="fill:none;stroke:#000000;stroke-width:0.99999994;stroke-linecap:round;stroke-linejoin:round;"/><g style="mix-blend-mode:normal;" opacity="0.4"/><g style="mix-blend-mode:normal;" opacity="0.4"><path d="M 18.555 9.751 L 109.445 9.751 C 112.787 9.751 115.5 12.464 115.5 15.805 L 115.5 106.696 C 115.5 110.038 112.787 112.751 109.445 112.751 L 18.555 112.751 C 15.213 112.751 12.5 110.038 12.5 106.696 L 12.5 15.805 C 12.5 12.464 15.213 9.751 18.555 9.751 Z" style="fill:none;stroke:#BA125B;stroke-width:1;stroke-linecap:round;stroke-linejoin:round;"/></g><g opacity="0.3"><path d=" M 40.304 82.73 C 40.304 81.256 40.813 80.019 41.83 79.019 C 42.848 78 44.093 77.491 45.565 77.491 C 47.001 77.491 48.218 78 49.218 79.019 C 50.236 80.019 50.744 81.256 50.744 82.73 C 50.744 84.167 50.236 85.395 49.218 86.413 C 48.218 87.414 47.001 87.914 45.565 87.914 C 44.093 87.914 42.848 87.414 41.83 86.413 C 40.813 85.413 40.304 84.185 40.304 82.73 Z  M 40 59.07 L 40 67.786 C 51.137 67.786 60.182 76.846 60.182 88 L 68.93 88 C 68.93 72.022 55.953 59.07 40 59.07 Z  M 40.015 40 L 40.015 49.634 C 61.16 49.634 78.329 66.819 78.329 87.985 L 88 87.985 C 88 61.49 66.485 40 40.015 40 L 40.015 40 Z " fill="rgb(121,18,44)"/></g><g opacity="0.3"><path d=" M 40.304 82.73 C 40.304 81.256 40.813 80.019 41.83 79.019 C 42.848 78 44.093 77.491 45.565 77.491 C 47.001 77.491 48.218 78 49.218 79.019 C 50.236 80.019 50.744 81.256 50.744 82.73 C 50.744 84.167 50.236 85.395 49.218 86.413 C 48.218 87.414 47.001 87.914 45.565 87.914 C 44.093 87.914 42.848 87.414 41.83 86.413 C 40.813 85.413 40.304 84.185 40.304 82.73 Z  M 40 59.07 L 40 67.786 C 51.137 67.786 60.182 76.846 60.182 88 L 68.93 88 C 68.93 72.022 55.953 59.07 40 59.07 Z  M 40.015 40 L 40.015 49.634 C 61.16 49.634 78.329 66.819 78.329 87.985 L 88 87.985 C 88 61.49 66.485 40 40.015 40 L 40.015 40 Z " fill="rgb(186,61,18)" vector-effect="non-scaling-stroke" stroke-width="2" stroke="rgb(186,61,18)" stroke-linejoin="round" stroke-linecap="butt" stroke-miterlimit="4"/></g><path d=" M 40.304 82.73 C 40.304 81.256 40.813 80.019 41.83 79.019 C 42.848 78 44.093 77.491 45.565 77.491 C 47.001 77.491 48.218 78 49.218 79.019 C 50.236 80.019 50.744 81.256 50.744 82.73 C 50.744 84.167 50.236 85.395 49.218 86.413 C 48.218 87.414 47.001 87.914 45.565 87.914 C 44.093 87.914 42.848 87.414 41.83 86.413 C 40.813 85.413 40.304 84.185 40.304 82.73 Z  M 40 59.07 L 40 67.786 C 51.137 67.786 60.182 76.846 60.182 88 L 68.93 88 C 68.93 72.022 55.953 59.07 40 59.07 Z  M 40.015 40 L 40.015 49.634 C 61.16 49.634 78.329 66.819 78.329 87.985 L 88 87.985 C 88 61.49 66.485 40 40.015 40 L 40.015 40 Z " fill="rgb(255,255,255)"/></svg>